<?xml version="1.0" encoding="UTF-8"?>
<svg width="107px" height="68px" viewBox="0 0 107 68" version="1.1" xmlns="http://www.w3.org/2000/svg" xmlns:xlink="http://www.w3.org/1999/xlink">
    <title>logo-pink</title>
    <defs>
        <path d="M84.1173942,10.3896041 L84.029683,10.8895763 L84.029683,10.8895763 L83.8945379,11.6394306 C83.5920338,13.3019704 83.2853449,14.9244964 83.1816444,16.2138333 C83.7956393,22.5749159 84.1039781,23.4070467 84.8952776,30.1547111 C85.0296045,31.3001601 85.1595744,32.5791151 85.255156,33.9481169 L85.8771975,33.8470194 L87.6325423,33.5523481 L89.3097061,33.260149 L90.9085699,32.9704701 L92.4290149,32.6833597 L93.3990201,32.4934034 L94.3340842,32.3046244 L95.2341721,32.1170368 L96.0992485,31.9306549 L96.9292782,31.7454929 L98.1085328,31.4700687 L98.8507913,31.2880192 L99.5578797,31.1072396 L100.229763,30.9277441 L100.866405,30.7495471 L101.467771,30.5726628 L102.033826,30.3971054 C102.125224,30.3679572 102.21515,30.3388649 102.303601,30.3098288 C103.458018,29.9308675 104.701066,30.5594981 105.080028,31.7139147 C105.458989,32.8683312 104.830358,34.1113796 103.675942,34.490341 L103.38655,34.5840193 L102.782109,34.7718779 C102.678516,34.803244 102.573496,34.8346385 102.467049,34.8660617 L101.811232,35.0549471 L101.121121,35.2445349 L100.39668,35.4348395 C100.273077,35.4666174 100.148042,35.4984258 100.021575,35.5302649 L99.245573,35.7216712 L98.0170264,36.0101957 L97.1549143,36.2035096 L96.2582964,36.3976114 L95.3271373,36.5925155 L94.3614019,36.7882362 L92.8478908,37.0833793 L91.7955601,37.2812037 L90.1519909,37.5795693 L89.0128446,37.7795865 L87.2388868,38.0813083 L85.4083978,38.3812998 C85.4034572,39.607094 85.3554961,40.8630519 85.2483743,42.1258165 L85.3017631,42.1244198 L85.3017631,42.1244198 L86.6456122,42.0853679 L87.9512204,42.0374834 C88.1656326,42.0287678 88.3784496,42.019685 88.5896706,42.0102355 L89.8378363,41.9491413 L91.0476528,41.8792667 C91.2460908,41.8668904 91.442929,41.8541491 91.6381666,41.8410433 L92.7903783,41.7580373 L93.9041325,41.6663031 C94.086551,41.6502879 94.2673654,41.6339099 94.4465746,41.6171695 L95.5025615,41.5123823 C97.5759842,41.294125 99.4180129,41.023812 101.027089,40.7021954 L101.812206,40.5371152 C102.195052,40.452441 102.563321,40.3645681 102.916991,40.2735083 C104.040158,39.9843248 105.185094,40.660402 105.474278,41.7835691 C105.763461,42.9067361 105.087384,44.0516725 103.964217,44.340856 C102.938881,44.6048507 101.81375,44.8429765 100.588361,45.0554561 L99.6505145,45.2100106 C98.2155251,45.4346399 96.6535012,45.6268812 94.9637851,45.7870519 L93.8183832,45.8890846 L92.6351032,45.9816357 C92.434731,45.996272 92.2327787,46.010514 92.0292455,46.0243623 L90.7890673,46.1027303 C90.5792066,46.1150052 90.3677631,46.1268873 90.154736,46.138377 L88.8575622,46.2026088 C88.6381968,46.2125304 88.417246,46.2220603 88.1947088,46.2311992 L86.8404418,46.2813419 L85.4480587,46.3221179 L84.6477432,46.3393275 C84.3560347,47.746135 83.96645,49.1285631 83.4559222,50.4532309 C86.5876419,50.6208748 90.0617552,50.6704468 93.8750253,50.600776 L95.5361095,50.563454 C96.0967736,50.5485611 96.6644057,50.5312155 97.2390021,50.5114158 L98.9836807,50.4446523 C99.2779414,50.4322974 99.5739422,50.4193286 99.8716828,50.4057457 C101.030276,50.3528907 102.012348,51.2492684 102.065203,52.4078614 C102.118058,53.5664544 101.221681,54.548527 100.063088,54.601382 C99.1498178,54.6430454 98.2521065,54.6790533 97.3699413,54.7094007 L95.6263351,54.7625465 C90.2582839,54.9046093 85.4935795,54.8267324 81.3291933,54.5276723 C81.1228246,54.8292813 80.9047813,55.1243089 80.6764671,55.4123952 C75.1228393,62.4199494 70.5444229,65.8807033 53.3635783,65.9969677 L53.3619374,66 L52.9078265,65.998 L52.4557155,66 L52.4556965,65.9960271 C35.27323,65.8807033 30.6948136,62.4199494 25.1411858,55.4123952 C24.9231923,55.1373316 24.7145622,54.8559399 24.5149428,54.5687305 C20.744558,54.8171603 16.4930731,54.8891404 11.7599514,54.7854372 L10.8141568,54.7625465 L9.07055063,54.7094007 C8.18838536,54.6790533 7.29067406,54.6430454 6.37740419,54.601382 C5.21881121,54.548527 4.32243349,53.5664544 4.3752885,52.4078614 C4.42814352,51.2492684 5.41021616,50.3528907 6.56880913,50.4057457 L7.01411512,50.4256595 L7.01411512,50.4256595 L7.45681123,50.4446523 L9.2014898,50.5114158 L10.0581607,50.539275 L10.0581607,50.539275 L10.9043824,50.563454 L12.5654666,50.600776 C16.1324204,50.6659465 19.4026176,50.6267814 22.3750284,50.4837038 C21.8556943,49.1459981 21.4614884,47.7485788 21.1672223,46.3263529 L20.993025,46.3221179 L19.6006419,46.2813419 L18.2463749,46.2311992 L17.9137588,46.2171975 L17.9137588,46.2171975 L17.5835215,46.2026088 L16.2863477,46.138377 L15.9679946,46.1208481 L15.9679946,46.1208481 L15.6520164,46.1027303 L14.4118382,46.0243623 L14.107724,46.0032945 L14.107724,46.0032945 L13.8059805,45.9816357 L12.6227005,45.8890846 L11.4772986,45.7870519 C10.0289705,45.6497628 8.67445712,45.4889115 7.41334418,45.3042983 L6.79056917,45.2100106 L5.85272224,45.0554561 C4.62733365,44.8429765 3.50220248,44.6048507 2.4768668,44.340856 C1.35369974,44.0516725 0.6776225,42.9067361 0.966806013,41.7835691 C1.25598953,40.660402 2.40092588,39.9843248 3.52409294,40.2735083 C5.39461104,40.7551134 7.67352988,41.1475735 10.3572456,41.4491504 L10.9385222,41.5123823 L11.9945091,41.6171695 L12.2645267,41.6420082 L12.2645267,41.6420082 L12.5369512,41.6663031 L13.6507054,41.7580373 L14.8029171,41.8410433 L15.0969739,41.8604285 L15.0969739,41.8604285 L15.3934309,41.8792667 L16.6032474,41.9491413 L17.8514131,42.0102355 L18.1694415,42.0241347 L18.1694415,42.0241347 L18.4898633,42.0374834 L19.7954715,42.0853679 L20.5677548,42.1078079 C20.4587372,40.8159817 20.4115607,39.5313961 20.4089423,38.2790621 L19.2019727,38.0813083 L17.4280149,37.7795865 L16.2888686,37.5795693 L14.6452994,37.2812037 L13.5929687,37.0833793 L12.0794577,36.7882362 L11.1137222,36.5925155 L9.72993873,36.3004611 L8.85057814,36.106755 L8.00570581,35.9138298 L7.19528649,35.7216712 L6.4192849,35.5302649 L6.23065815,35.4825292 L6.23065815,35.4825292 L6.04417975,35.4348395 L5.31973868,35.2445349 L4.62962721,35.0549471 L3.9738101,34.8660617 L3.81521018,34.8189484 L3.81521018,34.8189484 L3.6587509,34.7718779 L3.0543092,34.5840193 L2.76491788,34.490341 C1.61050133,34.1113796 0.981870676,32.8683312 1.36083202,31.7139147 C1.73979336,30.5594981 2.98284174,29.9308675 4.1372583,30.3098288 L4.27104088,30.3534251 L4.27104088,30.3534251 L4.40703317,30.3971054 L4.97308833,30.5726628 L5.57445467,30.7495471 L6.21109694,30.9277441 L6.88297987,31.1072396 L7.59006821,31.2880192 L8.33232671,31.4700687 L9.51158138,31.7454929 L10.341611,31.9306549 L11.2066874,32.1170368 L11.4284284,32.1638212 L11.4284284,32.1638212 L11.6523571,32.2106807 L13.0418395,32.4934034 L14.0118446,32.6833597 L15.5322896,32.9704701 L17.1311535,33.260149 L18.8083173,33.5523481 L20.563662,33.8470194 C20.6644429,32.5165932 20.7913359,31.2721266 20.9223753,30.1547111 C21.7136748,23.4070467 22.0220136,22.5749159 22.6360085,16.2138333 C22.5271229,14.8600295 22.1944427,13.1388848 21.8777967,11.3897862 L21.7879699,10.8895763 C20.6461091,4.46797851 20.0269009,-1.89488484 31.7530151,8.53151221 C36.6794747,12.4899134 43.5800117,14.3902731 52.454626,14.2325911 L52.4557155,14.2095268 C52.6076392,14.2145342 52.7590014,14.2189562 52.909802,14.2227928 L53.3619374,14.2095268 L53.3630269,14.2325911 C62.2376412,14.3902731 69.1381782,12.4899134 74.0646379,8.53151221 C85.4861776,-1.62406933 85.1953817,4.14876703 84.1173942,10.3896041 Z M53.6939937,38.7340177 L53.1236592,38.7340177 C50.1047995,38.7542684 47.8353517,39.1031577 47.8353517,40.0768229 C47.8353517,41.0809152 48.7042134,42.2784598 50.0375467,43.8709077 C51.312909,45.3941188 52.4124665,46.763139 53.2904755,46.8793048 L53.4088265,46.8872768 L53.5271774,46.8793048 C54.4051864,46.763139 55.5047439,45.3941188 56.7801062,43.8709077 C58.1134395,42.2784598 58.9823012,41.0809152 58.9823012,40.0768229 C58.9823012,39.1031577 56.7128534,38.7542684 53.6939937,38.7340177 Z" id="path-1"></path>
    </defs>
    <g id="logo-pink" stroke="none" stroke-width="1" fill="none" fill-rule="evenodd">
        <mask id="mask-2" fill="white">
            <use xlink:href="#path-1"></use>
        </mask>
        <use id="Mask" fill="#E2AFFA" xlink:href="#path-1"></use>
    </g>
</svg>